<?xml version="1.0" encoding="UTF-8" standalone="no"?>
<svg
   xmlns:dc="http://purl.org/dc/elements/1.1/"
   xmlns:cc="http://creativecommons.org/ns#"
   xmlns:rdf="http://www.w3.org/1999/02/22-rdf-syntax-ns#"
   xmlns:svg="http://www.w3.org/2000/svg"
   xmlns="http://www.w3.org/2000/svg"
   xmlns:sodipodi="http://sodipodi.sourceforge.net/DTD/sodipodi-0.dtd"
   xmlns:inkscape="http://www.inkscape.org/namespaces/inkscape"
   inkscape:version="1.0 (4035a4f, 2020-05-01)"
   sodipodi:docname="undraw_abstract_x68e_build.svg"
   version="1.1"
   viewBox="0 0 1095.74023 664.03433"
   height="664.03433"
   width="1095.74023"
   data-name="Layer 1"
   id="a5860ba0-ef67-4914-ac96-07e2ebcccb4f">
  <metadata
     id="metadata1013">
    <rdf:RDF>
      <cc:Work
         rdf:about="">
        <dc:format>image/svg+xml</dc:format>
        <dc:type
           rdf:resource="http://purl.org/dc/dcmitype/StillImage" />
      </cc:Work>
    </rdf:RDF>
  </metadata>
  <defs
     id="defs1011" />
  <sodipodi:namedview
     inkscape:current-layer="a5860ba0-ef67-4914-ac96-07e2ebcccb4f"
     inkscape:window-maximized="0"
     inkscape:window-y="26"
     inkscape:window-x="0"
     inkscape:cy="332.01715"
     inkscape:cx="547.87012"
     inkscape:zoom="0.64978904"
     showgrid="false"
     id="namedview1009"
     inkscape:window-height="774"
     inkscape:window-width="1280"
     inkscape:pageshadow="2"
     inkscape:pageopacity="0"
     guidetolerance="10"
     gridtolerance="10"
     objecttolerance="10"
     borderopacity="1"
     bordercolor="#666666"
     pagecolor="#ffffff" />
  <title
     id="title958">abstract</title>
  <rect
     id="rect960"
     fill="#3f3d56"
     height="2"
     width="394.74023"
     y="661"
     x="701" />
  <polygon
     id="polygon962"
     fill="#3f3d56"
     points="474 429 474 216 718 216 718 0 0 0 0 643 718 643 718 429 474 429" />
  <polygon
     id="polygon964"
     opacity="0.1"
     points="718 216 718 0 469 0 469 213 249 213 249 0 0 0 0 216 225 216 225 429 0 429 0 643 476 643 476 429 474 429 474 216 718 216" />
  <path
     id="path966"
     fill="#9c27b0"
     transform="translate(-52.12988 -117.98284)"
     d="M224.12988,117.98284a172.00382,172.00382,0,0,1-172,172v-172Z" />
  <path
     id="path968"
     opacity="0.1"
     transform="translate(-52.12988 -117.98284)"
     d="M132.12988,117.98284a80.00357,80.00357,0,0,1-80,80v44a124.00426,124.00426,0,0,0,124-124Z" />
  <polygon
     id="polygon970"
     fill="#d0cde1"
     points="718 60 718 29 553 29 553 0 517 0 517 29 517 60 517 84 517 115 553 115 718 115 718 84 553 84 553 60 718 60" />
  <path
     id="path972"
     fill="#d0cde1"
     transform="translate(-52.12988 -117.98284)"
     d="M481.12988,448.98284a81,81,0,1,0-92,80.23639V642.98284H256.36627a81,81,0,1,0,0,22H389.12988v48h22v-48h45v-22h-45V529.21923A81.00034,81.00034,0,0,0,481.12988,448.98284Z" />
  <polygon
     id="polygon974"
     fill="#d0cde1"
     points="626.5 445.263 662.508 507.631 698.517 570 626.5 570 554.483 570 590.492 507.631 626.5 445.263" />
  <polygon
     id="polygon976"
     fill="#9c27b0"
     points="610.5 578 538.483 578 574.492 515.631 574.742 515.198 561.5 492.263 525.492 554.631 489.483 617 561.5 617 633.517 617 611 578 610.5 578" />
  <polygon
     id="polygon978"
     fill="#d0cde1"
     points="159 345 159 291 186 291 186 259 52 259 52 393 186 393 186 345 159 345" />
  <rect
     id="rect980"
     fill="#9c27b0"
     height="50"
     width="50"
     y="234"
     x="89" />
  <path
     id="path982"
     fill="#ffb8b8"
     transform="translate(-52.12988 -117.98284)"
     d="M989.162,357.83165,972.618,401.5551l-59.664,20.935s-36-4-36,16c0,14.18058,43,2,43,2l78.66169-23.57271,24.816-61.44917Z" />
  <rect
     id="rect984"
     fill="#9c27b0"
     height="202"
     width="234"
     y="228"
     x="635" />
  <path
     id="path992"
     fill="#2f2e41"
     transform="translate(-52.12988 -117.98284)"
     d="M1024.15387,329.42035s-16.544-2.36343-24.816,28.36116-10.63544,33.088-10.63544,33.088,48.45031,7.09029,49.632,4.72686S1048.96988,336.51064,1024.15387,329.42035Z" />
  <circle
     id="circle994"
     fill="#ffb8b8"
     r="31.9063"
     cy="167.71406"
     cx="962.57027" />
  <path
     id="path996"
     fill="#ffb8b8"
     transform="translate(-52.12988 -117.98284)"
     d="M1000.51957,311.69463s10.63544,27.17944,7.09029,30.72459,43.72345,8.272,43.72345,8.272,3.54515-17.72572-10.63543-28.36116c0,0-5.90858-17.72572-4.72686-21.27087S1000.51957,311.69463,1000.51957,311.69463Z" />
  <path
     id="path998"
     fill="#2f2e41"
     transform="translate(-52.12988 -117.98284)"
     d="M1028.88073,323.51178a85.216,85.216,0,0,0-31.9063,21.27087c-14.18058,15.36229-21.27087,20.08915-21.27087,20.08915s-16.544,5.90857-10.63544,34.26973c2.95429,14.18058.88629,30.13373-1.92028,42.54174a265.8223,265.8223,0,0,0-6.35172,58.65559v12.2473s-108.71777,228.071-72.08461,243.43328,69.72118,20.08915,72.08461,16.544,44.90517-187.89267,44.90517-187.89267,11.81715,197.34639,41.36,197.34639,77.99318-8.272,77.99318-8.272l-60.26746-236.343s14.18058-40.17831-21.27087-68.53947l-4.72686-12.99886c19.60447.01,28.56614-124.06968,8.272-134.7155C1043.06131,321.14835,1038.33445,317.6032,1028.88073,323.51178Z" />
  <path
     id="path1000"
     fill="#ffb8b8"
     transform="translate(-52.12988 -117.98284)"
     d="M999.33786,387.32438l-16.544,43.72345-59.664,20.935s-36-4-36,16c0,14.18058,43,2,43,2l78.6617-23.57271,24.816-61.44918Z" />
  <ellipse
     id="ellipse1002"
     fill="#2f2e41"
     ry="11.81715"
     rx="20.68001"
     cy="652.21718"
     cx="868.62393" />
  <ellipse
     id="ellipse1004"
     fill="#2f2e41"
     ry="11.81715"
     rx="20.68001"
     cy="652.21718"
     cx="1026.97373" />
  <path
     id="path1006"
     fill="#2f2e41"
     transform="translate(-52.12988 -117.98284)"
     d="M1027.01734,240.95422h-.00012a25.34145,25.34145,0,0,0-4.89258.48651,21.44172,21.44172,0,0,0-9.34021-2.15271h-.84777c-16.34473,0-29.59461,14.7901-29.59461,33.03461v.00006h5.47669l.88452-6.73224L990,272.32269h4.56226a64.57589,64.57589,0,0,0-2.119,16.55036v33.62384h8.28027l4.79395-12.45795-1.19849,12.45795h53.22314l4.35816-11.32538-1.0896,11.32538h5.99243V296.09613C1066.80311,265.64215,1048.99037,240.95422,1027.01734,240.95422Z" />
  <path
     id="topleft"
     style="opacity:1;fill-opacity:1;fill-rule:nonzero;stroke-width:2.90408;stroke-linejoin:round;stroke-miterlimit:4;stroke-dasharray:none;stroke-opacity:1;fill:none;stroke:#000000"
     d="m 719.14432,267.60261 30.5318,0.0575 -15.44519,48.3266 -41.00216,30.05078 -10.02643,-19.53812 z" />
  <path
     id="topright"
     style="opacity:1;fill-opacity:1;fill-rule:nonzero;stroke-width:2.90408;stroke-linejoin:round;stroke-miterlimit:4;stroke-dasharray:none;stroke-opacity:1;fill:#ffffff;stroke:#000000"
     d="m 791.88321,267.77593 -42.20709,-0.11584 -15.44519,48.3266 41.35199,29.57097 41.00215,-30.05077 z" />
  <path
     id="bottomleft"
     style="opacity:1;fill-opacity:1;fill-rule:nonzero;stroke-width:2.90408;stroke-linejoin:round;stroke-miterlimit:4;stroke-dasharray:none;stroke-opacity:1;stroke:#000000"
     d="m 717.93061,393.76843 42.20708,0.11584 15.44523,-48.32661 -41.35199,-29.57097 -41.00216,30.05078 z" />
  <path
     id="bottomright"
     style="opacity:1;fill-opacity:1;fill-rule:nonzero;stroke-width:2.90408;stroke-linejoin:round;stroke-miterlimit:4;stroke-dasharray:none;stroke-opacity:1;stroke:#000000;fill:none"
     d="m 790.66952,393.94174 -30.53183,-0.0575 15.44523,-48.3266 41.00215,-30.05077 10.02643,19.5381 z" />
</svg>
